<?xml version="1.0" standalone="no"?>
<!DOCTYPE svg PUBLIC "-//W3C//DTD SVG 1.1//EN" "http://www.w3.org/Graphics/SVG/1.1/DTD/svg11.dtd" >
<svg xmlns="http://www.w3.org/2000/svg" xmlns:xlink="http://www.w3.org/1999/xlink" version="1.1">
<metadata>
Created by FontForge 20161003 at Tue Jan 16 15:47:45 2018
 By www-data
Copyright 1990-1998 as an unpublished work by Bitstream Inc.  All rights reserved.  Confidential.
</metadata>
<defs>
<font id="Square721BT-Roman" horiz-adv-x="500" >
  <font-face 
    font-family="Square 721"
    font-weight="400"
    font-stretch="normal"
    units-per-em="1000"
    panose-1="2 0 5 3 0 0 0 0 0 0"
    ascent="800"
    descent="-200"
    x-height="514"
    cap-height="727"
    bbox="-167 -236 1300 990"
    underline-thickness="51"
    underline-position="-148"
    unicode-range="U+0020-FFFD"
  />
<missing-glyph horiz-adv-x="338" 
 />
    <glyph glyph-name=".notdef" unicode="&#xfffd;" horiz-adv-x="338" 
 />
    <glyph glyph-name=".null" horiz-adv-x="0" 
 />
    <glyph glyph-name="nonmarkingreturn" horiz-adv-x="333" 
 />
    <glyph glyph-name="space" unicode=" " horiz-adv-x="338" 
 />
    <glyph glyph-name="exclam" unicode="!" horiz-adv-x="252" 
d="M88 0v94h76v-94h-76zM93 195l-5 532h76l-4 -532h-67z" />
    <glyph glyph-name="quotedbl" unicode="&#x22;" horiz-adv-x="278" 
d="M97 700v-270h-49v270h49zM231 700v-270h-50v270h50z" />
    <glyph glyph-name="numbersign" unicode="#" horiz-adv-x="769" 
d="M448 710l-82 -236h129l84 236h62l-83 -236h154l-18 -52h-155l-48 -136h166l-18 -52h-166l-83 -234h-63l84 234h-131l-84 -234h-62l83 234h-160l19 52h159l49 136h-172l17 52h173l84 236h62zM476 422h-130l-47 -136h130z" />
    <glyph glyph-name="dollar" unicode="$" horiz-adv-x="676" 
d="M67 237h76q0 -6 -0.5 -16.5t-0.5 -15.5q0 -80 27 -109t102 -29q23 0 36 1v267q-130 2 -181 43t-51 150q0 112 46.5 160.5t153.5 48.5q21 0 32 -1v51h70v-51h20q108 0 156 -40t48 -133q0 -13 -2 -41h-77q1 11 1 31q0 63 -27.5 84.5t-104.5 21.5h-14v-250q131 -3 181.5 -45
t50.5 -153q0 -119 -46 -171t-151 -52q-23 0 -35 1v-47h-70v47q-5 0 -14 -0.5t-13 -0.5q-113 0 -164 48t-51 157q0 12 2 44zM377 65h19q80 0 107.5 30t27.5 113q0 72 -31.5 97t-122.5 27v-267zM307 661h-21q-79 0 -106 -27.5t-27 -105.5q0 -67 29.5 -88.5t124.5 -27.5v249z
" />
    <glyph glyph-name="percent" unicode="%" horiz-adv-x="907" 
d="M678 -9q-83 0 -115.5 34.5t-32.5 121.5v153q0 86 32.5 121t115.5 35h44q84 0 116.5 -35t32.5 -121v-153q0 -87 -32.5 -121.5t-116.5 -34.5h-44zM185 271q-84 0 -116.5 34t-32.5 121v154q0 86 33 121t116 35h44q84 0 116 -34.5t32 -121.5v-154q0 -87 -32 -121t-116 -34
h-44zM683 57h35q58 0 73.5 20t15.5 85v123q0 65 -15.5 85.5t-73.5 20.5h-35q-58 0 -73.5 -20.5t-15.5 -85.5v-123q0 -66 15.5 -85.5t73.5 -19.5zM189 337h36q57 0 72.5 20t15.5 85v123q0 65 -15 85.5t-73 20.5h-36q-58 0 -73.5 -20.5t-15.5 -85.5v-123q0 -66 15.5 -85.5
t73.5 -19.5zM290 -9l257 745h69l-257 -745h-69z" />
    <glyph glyph-name="ampersand" unicode="&#x26;" horiz-adv-x="727" 
d="M590 90q-28 -62 -90 -81t-189 -19q-89 0 -137.5 11.5t-81.5 50.5q-37 43 -37 176q0 90 29 136t102 61q-67 47 -67 154q0 91 48.5 124t168.5 33q116 0 168 -36.5t52 -122.5v-61h-81v56q0 60 -27.5 74t-111.5 14q-83 0 -108 -13t-25 -68q0 -35 10 -58.5t21 -35t43 -37.5
l262 -219v101h81v-107q0 -21 -6 -57l137 -114l-47 -57zM524 146l-268 224q-70 -1 -94 -35t-24 -115q0 -54 5.5 -82.5t23.5 -43.5q20 -17 61.5 -22t125.5 -5q77 0 117.5 18t52.5 61z" />
    <glyph glyph-name="quoteright" unicode="&#x2019;" horiz-adv-x="324" 
d="M122 626v101h80v-122q0 -37 -20.5 -57t-59.5 -20v43q18 2 25.5 9.5t7.5 24.5v21h-33z" />
    <glyph glyph-name="parenleft" unicode="(" horiz-adv-x="324" 
d="M74 487q0 137 38.5 193t138.5 56h31v-76h-22q-67 0 -84.5 -34.5t-17.5 -141.5v-241q0 -107 17.5 -141.5t84.5 -34.5h22v-76h-31q-100 0 -138.5 56t-38.5 193v247z" />
    <glyph glyph-name="parenright" unicode=")" horiz-adv-x="324" 
d="M250 487v-247q0 -137 -38.5 -193t-138.5 -56h-31v76h22q67 0 84.5 34.5t17.5 141.5v241q0 107 -17.5 141.5t-84.5 34.5h-22v76h31q100 0 138.5 -56t38.5 -193z" />
    <glyph glyph-name="asterisk" unicode="*" 
d="M122 703l55 32l70 -120l-56 -32zM323 735l55 -32l-69 -121l-56 33zM312 512v65h139v-65h-139zM253 475l56 32l69 -120l-55 -32zM187 512h-138v65h138v-65zM191 507l56 -32l-70 -121l-55 32z" />
    <glyph glyph-name="plus" unicode="+" horiz-adv-x="833" 
d="M441 596v-274h268v-48h-268v-274h-48v274h-269v48h269v274h48z" />
    <glyph glyph-name="comma" unicode="," horiz-adv-x="338" 
d="M126 0v106h86v-128q0 -38 -22.5 -59.5t-63.5 -21.5v45q36 3 36 36v22h-36z" />
    <glyph glyph-name="hyphen" unicode="-" horiz-adv-x="403" 
d="M65 237v68h273v-68h-273z" />
    <glyph glyph-name="period" unicode="." horiz-adv-x="338" 
d="M65 0v106h85v-106h-85z" />
    <glyph glyph-name="slash" unicode="/" horiz-adv-x="266" 
d="M44 -93h-67l258 829h68z" />
    <glyph glyph-name="zero" unicode="0" horiz-adv-x="676" 
d="M303 -9q-134 0 -186 55.5t-52 193.5v247q0 138 52 193.5t186 55.5h70q134 0 186 -55.5t52 -193.5v-247q0 -138 -52 -193.5t-186 -55.5h-70zM306 66h64q50 0 78.5 6t48.5 27t25.5 52t5.5 90v244q0 59 -5.5 90t-25.5 52q-20 20 -49 27t-78 7h-64q-51 0 -79.5 -6t-47.5 -27
q-20 -21 -25.5 -52t-5.5 -91v-243q0 -40 1.5 -61t8.5 -44t21 -38q19 -21 47.5 -27t79.5 -6z" />
    <glyph glyph-name="one" unicode="1" horiz-adv-x="676" 
d="M357 0v655l-171 -172l-50 49l195 195h105v-727h-79z" />
    <glyph glyph-name="two" unicode="2" horiz-adv-x="676" 
d="M73 0v123q0 102 38 147q16 19 40 33t45 21.5t59 17.5l164 45q78 21 96 49q13 18 13 96q0 46 -5.5 69.5t-25.5 38.5q-28 21 -179 21q-100 0 -131 -21.5t-31 -99.5v-43h-83v48q0 114 55.5 152.5t194.5 38.5q151 0 191 -18q59 -26 76.5 -67t17.5 -126q0 -97 -28 -140
t-118 -68l-203 -57q-58 -17 -80.5 -36.5t-22.5 -67.5v-80h452v-76h-535z" />
    <glyph glyph-name="three" unicode="3" horiz-adv-x="676" 
d="M71 241h81v-65q0 -71 40 -90.5t152 -19.5q77 0 115 7.5t55 31.5q13 19 13 116q0 63 -24 87.5t-103 24.5h-111v74h101q77 0 100.5 27t23.5 103q0 31 -1 46t-6.5 31.5t-17.5 25.5q-24 20 -160 20q-97 0 -130.5 -17t-33.5 -78v-66h-81v64q0 97 57 135t186 38q151 0 194 -21
q45 -21 60.5 -60t15.5 -113q0 -81 -20 -118t-82 -50q66 -13 90 -49t24 -112q0 -92 -19 -138q-22 -51 -77 -67.5t-167 -16.5q-66 0 -96.5 1.5t-67 11.5t-58.5 30q-53 49 -53 150v57z" />
    <glyph glyph-name="four" unicode="4" horiz-adv-x="676" 
d="M55 169v93l356 465h112v-481h111v-77h-111v-169h-81v169h-387zM134 246h308v401z" />
    <glyph glyph-name="five" unicode="5" horiz-adv-x="676" 
d="M69 213h81v-48q0 -63 38.5 -81t143.5 -18h25q54 0 83.5 7.5t52.5 34.5q20 23 20 101v33q0 93 -16 126q-18 35 -54 46t-107 11q-92 0 -131.5 -14t-41.5 -56h-80v372h480v-77h-400v-209q25 35 65 44.5t118 9.5q70 0 112 -7t72 -31q39 -32 52 -80t13 -132
q0 -79 -10.5 -125.5t-41.5 -75.5q-36 -34 -82 -43.5t-124 -9.5q-98 0 -148 10t-81 47q-39 47 -39 118v47z" />
    <glyph glyph-name="six" unicode="6" horiz-adv-x="676" 
d="M529 171v104q0 65 -37 81t-151 16q-135 0 -166 -34q-23 -24 -23 -111q0 -90 17 -111q24 -31 65 -39t130 -8q101 0 133 19t32 83zM76 203v334q0 108 48.5 153.5t165.5 45.5h113q110 0 159 -37t49 -123v-39h-81v23q0 63 -35 81t-139 18q-132 0 -163 -20
q-17 -11 -28.5 -36.5t-11.5 -57.5v-173q21 45 68 59.5t138 14.5q131 0 190.5 -32.5t59.5 -115.5v-132q0 -105 -60 -144q-24 -15 -60.5 -22.5t-67 -8.5t-93.5 -1q-140 0 -196 45.5t-56 167.5z" />
    <glyph glyph-name="seven" unicode="7" horiz-adv-x="676" 
d="M85 650v77h522v-80l-351 -647h-97l363 650h-437z" />
    <glyph glyph-name="eight" unicode="8" horiz-adv-x="676" 
d="M171 378q-53 14 -72 49t-19 107q0 99 27 140q25 37 79 49.5t156 12.5q162 0 204 -36q31 -27 41 -62t10 -98q0 -77 -20 -114.5t-74 -47.5q61 -16 82.5 -53t21.5 -115q0 -71 -9 -111.5t-36 -64.5q-29 -26 -82.5 -34.5t-149.5 -8.5t-149.5 12.5t-83.5 50.5q-28 35 -28 154
q0 79 20 116.5t82 53.5zM337 67q127 0 157 24q20 15 26 40t6 70q0 72 -17 98q-16 25 -54 32.5t-118 7.5q-129 0 -158 -24q-29 -25 -29 -105q0 -87 23 -111q30 -32 164 -32zM343 411q106 0 138.5 21.5t32.5 99.5q0 72 -15 94q-22 34 -163 34q-127 0 -154 -26
q-13 -12 -16.5 -35.5t-3.5 -70.5q0 -76 35 -96.5t146 -20.5z" />
    <glyph glyph-name="nine" unicode="9" horiz-adv-x="676" 
d="M590 523v-335q0 -108 -48.5 -153t-165.5 -45h-113q-110 0 -159 36.5t-49 122.5v39h81v-23q0 -63 35 -81t139 -18q132 0 163 20q17 11 28.5 36.5t11.5 57.5v174q-21 -45 -68.5 -59.5t-138.5 -14.5q-131 0 -190 32t-59 115v133q0 104 60 143q34 22 82 27.5t138 5.5
q140 0 196.5 -45.5t56.5 -167.5zM137 554v-104q0 -65 37 -81t151 -16q135 0 166 34q22 23 22 111q0 91 -16 111q-24 32 -66 40t-130 8q-101 0 -132.5 -19t-31.5 -84z" />
    <glyph glyph-name="colon" unicode=":" horiz-adv-x="338" 
d="M126 407v107h86v-107h-86zM126 0v106h86v-106h-86z" />
    <glyph glyph-name="semicolon" unicode=";" horiz-adv-x="338" 
d="M126 0v106h86v-128q0 -38 -22.5 -59.5t-63.5 -21.5v45q36 3 36 36v22h-36zM126 407v107h86v-107h-86z" />
    <glyph glyph-name="less" unicode="&#x3c;" horiz-adv-x="833" 
d="M704 501l-499 -203l499 -202v-53l-575 235v40l575 236v-53z" />
    <glyph glyph-name="equal" unicode="=" horiz-adv-x="833" 
d="M709 413v-48h-585v48h585zM709 231v-48h-585v48h585z" />
    <glyph glyph-name="greater" unicode="&#x3e;" horiz-adv-x="833" 
d="M704 318v-40l-575 -235v53l499 202l-499 203v53z" />
    <glyph glyph-name="question" unicode="?" horiz-adv-x="519" 
d="M187 199v58q0 52 25.5 76.5t89.5 52.5q77 33 92 55q18 27 18 105q0 69 -25 92t-92 23q-127 0 -150 -17q-28 -21 -28 -104q0 -24 1 -38h-80v72q0 92 54 127t178 35t172 -39t48 -153q0 -87 -18 -131.5t-68 -67.5q-14 -7 -40 -18t-35.5 -15.5t-25 -14t-21 -16.5t-10 -18.5
t-4.5 -26.5v-37h-81zM187 0v93h81v-93h-81z" />
    <glyph glyph-name="at" unicode="@" horiz-adv-x="1000" 
d="M591 229l30 121q-9 46 -37 71.5t-68 25.5q-76 0 -124.5 -66t-48.5 -164q0 -55 27 -85t74 -30q52 0 92.5 34.5t54.5 92.5zM634 408l29 61h46l-68 -274q-8 -35 -8 -45q0 -21 13.5 -33t38.5 -12q53 0 103 40q47 37 73.5 99.5t26.5 138.5q0 122 -96 202.5t-249 80.5
q-171 0 -284 -97q-145 -124 -145 -319q0 -166 119 -262q104 -85 266 -85q172 0 310 94l19 -27q-144 -108 -319 -108q-187 0 -304 90q-148 113 -148 310q0 204 165 340q131 108 322 108q165 0 272 -82q127 -98 127 -248q0 -171 -119 -265q-69 -54 -151 -54q-94 0 -94 74
q0 2 0.5 6.5t0.5 7.5q-51 -88 -144 -88q-75 0 -114 41t-39 119q0 113 66.5 190t160.5 77q92 0 124 -80z" />
    <glyph glyph-name="A" unicode="A" horiz-adv-x="692" 
d="M11 0l269 727h132l270 -727h-83l-69 186h-368l-68 -186h-83zM189 258h315l-145 392h-26z" />
    <glyph glyph-name="B" unicode="B" horiz-adv-x="701" 
d="M90 0v727h338q118 0 156 -35.5t38 -145.5q0 -78 -17 -114.5t-68 -50.5q61 -16 82 -55t21 -123q0 -122 -48.5 -162.5t-188.5 -40.5h-313zM169 76h265q35 0 57.5 5t36 13.5t19.5 27.5t7.5 37.5t1.5 54.5q0 84 -31 104.5t-141 20.5h-215v-263zM169 413h262q68 0 88 25t20 99
q0 76 -24 94.5t-119 18.5h-227v-237z" />
    <glyph glyph-name="C" unicode="C" horiz-adv-x="683" 
d="M65 487q0 139 53 194t189 55h85q131 0 187 -45.5t56 -161.5v-32h-83v20q0 86 -35.5 114.5t-130.5 28.5h-56q-57 0 -90 -6.5t-56 -28.5q-24 -23 -30 -57t-6 -101v-207q0 -67 6 -101t30 -57t56 -29t90 -6h56q97 0 132 30t35 123q0 23 -1 35h83v-48q0 -124 -53.5 -170
t-189.5 -46h-85q-136 0 -189 55t-53 194v247z" />
    <glyph glyph-name="D" unicode="D" horiz-adv-x="750" 
d="M168 72h258q103 0 139.5 34.5t36.5 136.5v235q0 106 -35.5 141.5t-140.5 35.5h-258v-583zM88 0v727h351q137 0 192 -54.5t55 -188.5v-240q0 -135 -55 -189.5t-192 -54.5h-351z" />
    <glyph glyph-name="E" unicode="E" horiz-adv-x="639" 
d="M88 0v727h510v-77h-430v-238h418v-74h-418v-262h430v-76h-510z" />
    <glyph glyph-name="F" unicode="F" horiz-adv-x="593" 
d="M88 0v727h454v-77h-374v-238h363v-74h-363v-338h-80z" />
    <glyph glyph-name="G" unicode="G" horiz-adv-x="734" 
d="M60 487q0 140 58 194.5t204 54.5h92q133 0 197.5 -45.5t64.5 -142.5v-31h-83v9q0 80 -41 107t-143 27h-64q-64 0 -100 -6.5t-63 -29.5q-25 -21 -31.5 -55t-6.5 -102v-207q0 -68 6.5 -102t31.5 -55q28 -24 63 -30t100 -6h64q40 0 61 1.5t45 8.5t42 22q23 19 29.5 51
t6.5 93v45h-202v74h285v-122q0 -140 -58 -194.5t-204 -54.5h-92q-146 0 -204 54.5t-58 194.5v247z" />
    <glyph glyph-name="H" unicode="H" horiz-adv-x="755" 
d="M88 0v727h80v-314h419v314h80v-727h-80v337h-419v-337h-80z" />
    <glyph glyph-name="I" unicode="I" horiz-adv-x="257" 
d="M88 0v727h81v-727h-81z" />
    <glyph glyph-name="J" unicode="J" horiz-adv-x="590" 
d="M23 255h81v-12q0 -108 24 -142t109 -34h58q86 0 109.5 34t23.5 142v484h81v-508q0 -123 -48 -175.5t-159 -52.5h-72q-117 0 -162 55.5t-45 193.5v15z" />
    <glyph glyph-name="K" unicode="K" horiz-adv-x="669" 
d="M88 0v727h80v-308h62l295 308h106l-335 -347l378 -380h-110l-334 341h-62v-341h-80z" />
    <glyph glyph-name="L" unicode="L" horiz-adv-x="597" 
d="M88 0v727h79v-651h412v-76h-491z" />
    <glyph glyph-name="M" unicode="M" horiz-adv-x="937" 
d="M88 0v727h132l249 -648l247 648h133v-727h-80v659l-251 -659h-99l-251 659v-659h-80z" />
    <glyph glyph-name="N" unicode="N" horiz-adv-x="775" 
d="M88 0v727h124l394 -649v649h80v-727h-124l-394 650v-650h-80z" />
    <glyph glyph-name="O" unicode="O" horiz-adv-x="745" 
d="M65 487q0 140 58 194.5t204 54.5h92q148 0 205 -54t57 -195v-247q0 -140 -58 -194.5t-204 -54.5h-92q-146 0 -204 54.5t-58 194.5v247zM395 660h-45q-44 0 -66.5 -1.5t-50 -9.5t-46.5 -25q-25 -21 -32 -56t-7 -102v-206q0 -67 7 -101.5t32 -55.5q28 -24 63 -30t100 -6h45
q44 0 67 1.5t50.5 9.5t46.5 25q25 21 31.5 55.5t6.5 101.5v207q0 67 -7 102t-32 56q-27 23 -62.5 29t-100.5 6z" />
    <glyph glyph-name="P" unicode="P" horiz-adv-x="655" 
d="M88 0v727h306q120 0 167.5 -35t47.5 -131v-110q0 -98 -47.5 -133.5t-167.5 -35.5h-226v-282h-80zM525 451v107q0 58 -28.5 75t-103.5 17h-225v-291h225q73 0 102.5 17t29.5 75z" />
    <glyph glyph-name="Q" unicode="Q" horiz-adv-x="745" 
d="M65 487q0 140 58 194.5t204 54.5h92q148 0 205 -54t57 -195v-247q0 -63 -7.5 -100t-29.5 -61l44 -44l-53 -54l-46 47q-22 -22 -61 -29.5t-109 -7.5h-92q-146 0 -204 54.5t-58 194.5v247zM597 243v224q0 67 -7 102t-32 56q-27 23 -62.5 29t-100.5 6h-45q-44 0 -66.5 -1.5
t-50 -9.5t-46.5 -25q-25 -21 -32 -56t-7 -102v-206q0 -67 7 -101.5t32 -55.5q28 -24 63 -30t100 -6h63q102 0 124 13l-137 137l51 52l139 -137q7 42 7 111z" />
    <glyph glyph-name="R" unicode="R" horiz-adv-x="699" 
d="M88 0v727h328q120 0 167.5 -35t47.5 -131v-110q0 -114 -94 -130q53 -13 73.5 -46t20.5 -100v-175h-84v150q0 79 -25 106t-96 27h-258v-283h-80zM400 650h-232v-291h232q82 0 114.5 19t32.5 84v85q0 66 -31.5 84.5t-115.5 18.5z" />
    <glyph glyph-name="S" unicode="S" horiz-adv-x="713" 
d="M69 237h80v-14q0 -61 9 -93t33 -46q22 -12 65.5 -15t139.5 -3q116 0 147 34q18 19 18 97q0 73 -13 97.5t-68 28.5l-224 18q-99 8 -138.5 49.5t-39.5 143.5q0 119 54 166q26 23 70.5 29.5t130.5 6.5h26q95 0 146 -8.5t88 -39.5q41 -35 41 -131q0 -23 -1 -35h-81v18
q0 73 -20 93q-17 17 -61.5 22t-139.5 5q-104 0 -137 -21.5t-33 -105.5q0 -63 19 -86t72 -28l229 -19q91 -8 126.5 -50.5t35.5 -138.5q0 -63 -8 -101.5t-32 -65.5q-31 -36 -82 -45t-152 -9h-36q-85 0 -132 8t-80 38q-53 46 -53 165q0 24 1 36z" />
    <glyph glyph-name="T" unicode="T" horiz-adv-x="522" 
d="M-11 650v77h544v-77h-232v-650h-81v650h-231z" />
    <glyph glyph-name="U" unicode="U" horiz-adv-x="748" 
d="M81 727h81v-477q0 -61 6 -92t28 -51q23 -21 53.5 -26.5t86.5 -5.5h76q56 0 87 5.5t54 26.5q21 19 27 50t6 93v477h81v-487q0 -139 -55 -194t-194 -55h-88q-139 0 -194 55t-55 194v487z" />
    <glyph glyph-name="V" unicode="V" horiz-adv-x="650" 
d="M1 727h86l232 -652l233 652h85l-266 -727h-104z" />
    <glyph glyph-name="W" unicode="W" horiz-adv-x="1007" 
d="M30 727h83l166 -629l167 629h114l168 -629l166 629h84l-198 -727h-103l-174 640l-171 -640h-107z" />
    <glyph glyph-name="X" unicode="X" horiz-adv-x="637" 
d="M-7 0l285 382l-257 345h93l205 -285l204 285h94l-257 -344l283 -383h-91l-232 324l-235 -324h-92z" />
    <glyph glyph-name="Y" unicode="Y" horiz-adv-x="595" 
d="M337 0h-79v322l-301 405h95l245 -339l245 339h95l-300 -404v-323z" />
    <glyph glyph-name="Z" unicode="Z" horiz-adv-x="650" 
d="M47 0v87l467 568h-446v72h531v-85l-464 -566h464v-76h-552z" />
    <glyph glyph-name="bracketleft" unicode="[" horiz-adv-x="324" 
d="M74 727h208v-77h-130v-573h130v-77h-208v727z" />
    <glyph glyph-name="backslash" unicode="\" horiz-adv-x="266" 
d="M303 -93h-68l-259 829h69z" />
    <glyph glyph-name="bracketright" unicode="]" horiz-adv-x="324" 
d="M250 727v-727h-208v77h130v573h-130v77h208z" />
    <glyph glyph-name="asciicircum" unicode="^" horiz-adv-x="1000" 
d="M534 712l259 -272h-70l-223 222l-224 -222h-70l260 272h68z" />
    <glyph glyph-name="underscore" unicode="_" 
d="M500 -187v-49h-500v49h500z" />
    <glyph glyph-name="quoteleft" unicode="&#x2018;" horiz-adv-x="324" 
d="M202 629v-101h-80v122q0 37 20.5 57t59.5 20v-43q-18 -2 -25.5 -9.5t-7.5 -24.5v-21h33z" />
    <glyph glyph-name="a" unicode="a" horiz-adv-x="565" 
d="M419 54q-34 -61 -162 -61q-116 0 -159.5 32.5t-43.5 130.5q0 99 41 134q35 29 158 29q66 0 104.5 -11t57.5 -39v89q0 66 -27 83t-120 17q-67 0 -92.5 -14t-26.5 -57h-76v12q0 68 44.5 95t145.5 27q149 0 187 -29q27 -21 34 -49.5t7 -82.5v-360h-69zM415 131v54
q0 38 -38 54.5t-118 16.5q-73 0 -99 -18t-26 -73q0 -61 27 -81t106 -20q148 0 148 67z" />
    <glyph glyph-name="b" unicode="b" horiz-adv-x="574" 
d="M80 0v727h76v-286q22 43 60 61.5t100 18.5q111 0 155.5 -46t44.5 -157v-122q0 -111 -44.5 -157t-155.5 -46q-128 0 -163 86v-79h-73zM156 299v-84q0 -80 37.5 -116.5t119.5 -36.5q80 0 102 30t22 121v88q0 91 -22 121t-102 30q-82 0 -119.5 -36.5t-37.5 -116.5z" />
    <glyph glyph-name="c" unicode="c" horiz-adv-x="565" 
d="M265 -7q-115 0 -161 45t-46 158v122q0 113 45.5 158t160.5 45h36q108 0 156.5 -41t50.5 -138h-79q-2 65 -29.5 87t-98.5 22h-36q-82 0 -104.5 -28.5t-22.5 -121.5v-88q0 -93 22.5 -122t104.5 -29h36q72 0 100 24.5t28 94.5v9h79v-10q0 -101 -48 -144t-158 -43h-36z" />
    <glyph glyph-name="d" unicode="d" horiz-adv-x="574" 
d="M421 79q-35 -86 -162 -86q-111 0 -156 46t-45 157v122q0 111 45 157t156 46q62 0 99.5 -18.5t59.5 -61.5v286h76v-727h-73v79zM418 215v84q0 80 -37.5 116.5t-119.5 36.5q-80 0 -102 -30t-22 -121v-88q0 -91 22 -121t102 -30q82 0 119.5 36.5t37.5 116.5z" />
    <glyph glyph-name="e" unicode="e" horiz-adv-x="565" 
d="M265 -7q-115 0 -161 45t-46 158v122q0 113 45.5 158t160.5 45h36q115 0 161 -45t46 -158v-78h-370q-1 -16 -1 -44q0 -81 26 -107.5t102 -26.5h36q65 0 93.5 18t33.5 71h79q-6 -85 -54.5 -121.5t-150.5 -36.5h-36zM137 307h291v20q0 74 -27 99t-101 25h-36
q-74 0 -100.5 -25t-26.5 -99v-20z" />
    <glyph glyph-name="f" unicode="f" horiz-adv-x="336" 
d="M23 449v65h72q-1 12 -1 35q0 98 34.5 138t119.5 40q44 0 85 -4v-69q-54 2 -64 2q-65 0 -81.5 -20.5t-16.5 -86.5v-35h162v-65h-162v-449h-76v449h-72z" />
    <glyph glyph-name="g" unicode="g" horiz-adv-x="588" 
d="M509 514v-508q0 -113 -44.5 -158t-156.5 -45h-35q-99 0 -146 36.5t-53 121.5h77q5 -53 32.5 -70.5t90.5 -17.5h34q65 0 95 21t30 73v106q-22 -43 -60 -61.5t-100 -18.5q-111 0 -155.5 46t-44.5 157v122q0 111 44.5 157t155.5 46q127 0 163 -87v80h73zM433 215v84
q0 80 -37.5 116.5t-119.5 36.5q-80 0 -102.5 -30t-22.5 -121v-88q0 -91 22.5 -121t102.5 -30q82 0 119.5 36.5t37.5 116.5z" />
    <glyph glyph-name="h" unicode="h" horiz-adv-x="576" 
d="M79 0v727h73v-283q36 77 168 77q102 0 142 -41.5t40 -142.5v-337h-76v321q0 77 -22 104t-94 27q-81 0 -118 -36.5t-37 -116.5v-299h-76z" />
    <glyph glyph-name="i" unicode="i" horiz-adv-x="234" 
d="M79 0v514h76v-514h-76zM79 641v86h76v-86h-76z" />
    <glyph glyph-name="j" unicode="j" horiz-adv-x="248" 
d="M94 641v86h77v-86h-77zM171 -75q0 -122 -104 -122q-13 0 -36 3v60h26q24 0 30.5 21.5t6.5 78.5v548h77v-589z" />
    <glyph glyph-name="k" unicode="k" horiz-adv-x="484" 
d="M79 0v727h76v-413h23l168 200h87l-194 -229l232 -285h-96l-197 244h-23v-244h-76z" />
    <glyph glyph-name="l" unicode="l" horiz-adv-x="234" 
d="M79 0v727h76v-727h-76z" />
    <glyph glyph-name="m" unicode="m" horiz-adv-x="884" 
d="M90 0v514h74v-70q32 77 154 77q64 0 101.5 -19.5t55.5 -65.5q23 45 60 65t96 20q101 0 140 -40.5t39 -143.5v-337h-76v313q0 82 -20.5 110.5t-88.5 28.5q-72 0 -104 -36.5t-32 -116.5v-299h-74v348q0 61 -22 82.5t-85 21.5q-73 0 -107.5 -37t-34.5 -116v-299h-76z" />
    <glyph glyph-name="n" unicode="n" horiz-adv-x="576" 
d="M79 0v514h73v-70q36 77 168 77q102 0 142 -41.5t40 -142.5v-337h-76v321q0 77 -22 104t-94 27q-80 0 -117.5 -37t-37.5 -116v-299h-76z" />
    <glyph glyph-name="o" unicode="o" horiz-adv-x="565" 
d="M265 -7q-115 0 -161 45t-46 158v122q0 113 45.5 158t160.5 45h36q115 0 161 -45t46 -158v-122q0 -113 -45.5 -158t-160.5 -45h-36zM428 213v88q0 93 -22.5 121.5t-105.5 28.5h-36q-82 0 -104.5 -28.5t-22.5 -121.5v-88q0 -93 22.5 -122t104.5 -29h36q82 0 105 29t23 122z
" />
    <glyph glyph-name="p" unicode="p" horiz-adv-x="574" 
d="M80 514h73v-80q36 87 163 87q111 0 155.5 -46t44.5 -157v-122q0 -111 -44.5 -157t-155.5 -46q-62 0 -100 18.5t-60 61.5v-270h-76v711zM156 215q0 -80 37.5 -116.5t119.5 -36.5q80 0 102 30t22 121v88q0 91 -22 121t-102 30q-82 0 -119.5 -36.5t-37.5 -116.5v-84z" />
    <glyph glyph-name="q" unicode="q" horiz-adv-x="574" 
d="M494 514v-711h-76v270q-22 -43 -59.5 -61.5t-99.5 -18.5q-111 0 -156 46t-45 157v122q0 111 45 157t156 46q126 0 162 -87v80h73zM418 215v84q0 80 -37.5 116.5t-119.5 36.5q-80 0 -102 -30t-22 -121v-88q0 -91 22 -121t102 -30q82 0 119.5 36.5t37.5 116.5z" />
    <glyph glyph-name="r" unicode="r" horiz-adv-x="468" 
d="M78 0v514h74v-70q31 77 141 77q86 0 119 -41.5t33 -142.5v-4h-77v15q0 60 -19 82t-74 22q-65 0 -92.5 -36.5t-27.5 -116.5v-299h-77z" />
    <glyph glyph-name="s" unicode="s" horiz-adv-x="583" 
d="M60 153h77v-12q0 -50 32 -66.5t115 -16.5q88 0 116.5 14t28.5 74q0 54 -21 69t-92 19q-25 1 -57 2t-50.5 2t-38.5 2t-32 4t-20 7q-30 17 -42 45.5t-12 78.5q0 92 48.5 119t186.5 27q107 0 151.5 -26.5t44.5 -103.5h-76v5q0 37 -32.5 48.5t-114.5 11.5t-107 -14.5
t-25 -66.5q0 -50 20 -61q8 -4 17.5 -7t24.5 -4.5t24 -2t32.5 -1t33.5 -0.5q123 -5 154 -18q35 -16 49 -46t14 -84q0 -55 -13.5 -85t-51.5 -53q-32 -20 -159 -20q-126 0 -175.5 28t-49.5 118v14z" />
    <glyph glyph-name="t" unicode="t" horiz-adv-x="493" 
d="M28 449v65h63v116h76v-116h252v-65h-252v-283q0 -61 20 -82.5t75 -21.5q56 0 75 21.5t19 82.5v15h77v-4q0 -113 -38 -148.5t-147 -35.5q-90 0 -123.5 40.5t-33.5 143.5v272h-63z" />
    <glyph glyph-name="u" unicode="u" horiz-adv-x="576" 
d="M498 514v-514h-73v70q-36 -77 -169 -77q-102 0 -142 41.5t-40 142.5v337h76v-321q0 -77 22.5 -104t94.5 -27q80 0 117 36.5t37 116.5v299h77z" />
    <glyph glyph-name="v" unicode="v" horiz-adv-x="472" 
d="M7 514h76l153 -442l153 442h74l-177 -514h-99z" />
    <glyph glyph-name="w" unicode="w" horiz-adv-x="780" 
d="M29 514h71l118 -442l118 442h105l119 -442l118 442h73l-139 -514h-105l-118 441l-120 -441h-103z" />
    <glyph glyph-name="x" unicode="x" horiz-adv-x="506" 
d="M17 0l195 275l-170 239h86l124 -180l124 180h86l-168 -239l195 -275h-86l-151 217l-148 -217h-87z" />
    <glyph glyph-name="y" unicode="y" horiz-adv-x="488" 
d="M23 514h76l153 -442l152 442h75l-194 -559q-29 -85 -61 -120t-92 -35q-18 0 -40 3v67q8 -1 23 -1q37 0 56 17t35 61l19 53h-23z" />
    <glyph glyph-name="z" unicode="z" horiz-adv-x="516" 
d="M58 0v83l318 361h-303v70h396v-71l-329 -374h329v-69h-411z" />
    <glyph glyph-name="braceleft" unicode="{" 
d="M417 669h-18q-67 0 -88 -26t-21 -98v-118q0 -77 -19.5 -114.5t-76.5 -53.5q57 -16 76.5 -53.5t19.5 -114.5v-118q0 -72 20 -98t85 -26q3 0 10.5 0.5t11.5 0.5v-52h-23q-100 0 -132 37.5t-32 142.5v119q0 75 -27.5 106t-95.5 31q-3 0 -10.5 -0.5t-11.5 -0.5v53
q4 0 11.5 -0.5t10.5 -0.5q68 0 95.5 31t27.5 106v118q0 105 32.5 143t131.5 38h23v-52z" />
    <glyph glyph-name="bar" unicode="|" 
d="M277 764v-1000h-53v1000h53z" />
    <glyph glyph-name="braceright" unicode="}" 
d="M271 540v-118q0 -75 27.5 -106t95.5 -31q3 0 10.5 0.5t11.5 0.5v-53q-4 0 -11.5 0.5t-10.5 0.5q-68 0 -95.5 -31t-27.5 -106v-119q0 -105 -32 -142.5t-132 -37.5h-23v52h19q66 0 87 25.5t21 97.5v118q0 77 19 114.5t77 53.5q-58 16 -77 53.5t-19 114.5v118q0 73 -20 99
t-85 26q-3 0 -10.5 -0.5t-11.5 -0.5v52h23q99 0 131.5 -38t32.5 -143z" />
    <glyph glyph-name="asciitilde" unicode="~" horiz-adv-x="833" 
d="M747 311q-98 -70 -189 -70q-11 0 -22 1t-22.5 3t-19.5 4t-21 6t-18 5.5t-20 7t-18 6.5q-94 34 -141 34q-78 0 -189 -78v55q103 71 189 71q50 0 141 -33q4 -1 20 -7t21 -7.5t18.5 -6t21 -6t19 -4t21.5 -3.5t20 -1q80 0 189 78v-55z" />
    <glyph glyph-name="exclamdown" unicode="&#xa1;" horiz-adv-x="252" 
d="M88 727h76v-94h-76v94zM93 531h67l4 -531h-76z" />
    <glyph glyph-name="cent" unicode="&#xa2;" horiz-adv-x="676" 
d="M261 -7l-40 -121h-70l43 131q-60 20 -83.5 64.5t-23.5 128.5v122q0 113 45.5 158t160.5 45h72l32 97h70l-36 -108q104 -35 105 -168h-79q-3 87 -48 99l-125 -379h45q72 0 100 24.5t28 94.5v9h79v-10q0 -101 -48.5 -144t-158.5 -43h-68zM217 72l125 379h-49
q-83 0 -105.5 -28.5t-22.5 -121.5v-88q0 -66 9.5 -97t42.5 -44z" />
    <glyph glyph-name="sterling" unicode="&#xa3;" horiz-adv-x="676" 
d="M56 0v76h10q46 0 65 29t19 95v90h-94v70h94v208q0 90 53.5 129t172.5 39q125 0 181.5 -33.5t56.5 -111.5v-76h-83v45q0 59 -30 80t-119 21q-91 0 -124 -24q-18 -14 -22.5 -34.5t-4.5 -60.5v-182h214v-70h-214v-89q0 -107 -46 -125h439v-76h-568z" />
    <glyph glyph-name="fraction" unicode="&#x2044;" horiz-adv-x="167" 
d="M-167 -9l424 745h76l-423 -745h-77z" />
    <glyph glyph-name="yen" unicode="&#xa5;" horiz-adv-x="595" 
d="M337 0h-79v319h-258v60h219l-64 88h-155v60h106l-149 200h95l245 -339l245 339h95l-148 -200h106v-60h-156l-64 -88h220v-60h-258v-319z" />
    <glyph glyph-name="florin" unicode="&#x192;" horiz-adv-x="676" 
d="M-23 -112q53 -11 78 -11q63 0 93 40.5t48 138.5l62 330h-144v65h154l17 92q17 95 67 144t127 49q43 0 91 -11v-73q-53 11 -79 11q-98 0 -122 -128l-16 -84h153v-65h-162l-66 -349q-24 -125 -71.5 -179.5t-140.5 -54.5q-37 0 -89 11v74z" />
    <glyph glyph-name="section" unicode="&#xa7;" horiz-adv-x="546" 
d="M149 140v-24q0 -36 26 -46t95 -10q73 0 97 11.5t24 54.5q0 27 -10 41.5t-35 22.5l-182 59q-70 23 -101.5 51.5t-31.5 75.5q0 45 29 75.5t81 39.5q-38 13 -54.5 40t-16.5 75q0 77 43 103.5t151 26.5q95 0 138 -25.5t43 -88.5v-23h-77v12q0 34 -24 45t-86 11
q-66 0 -87.5 -9.5t-21.5 -45.5q0 -27 10 -39.5t37 -21.5l218 -71q101 -33 101 -119q0 -45 -30 -76t-82 -37q38 -12 52.5 -39.5t14.5 -81.5q0 -81 -43 -108.5t-153 -27.5q-109 0 -155.5 24t-46.5 91v34h77zM359 420l-145 48q-105 -20 -105 -76q0 -48 78 -73l145 -47
q105 20 105 76q0 47 -78 72z" />
    <glyph glyph-name="currency" unicode="&#xa4;" horiz-adv-x="676" 
d="M611 230q0 -54 -9 -94.5t-32 -74.5t-67 -52t-109 -18h-44q-136 0 -189 55t-53 194v21h-89l20 60h69v88h-89l20 60h69v18q0 139 53 194t189 55h44q217 0 217 -214h-83q0 75 -32.5 107t-114.5 32h-51q-82 0 -110.5 -35.5t-28.5 -127.5v-29h327l-20 -60h-307v-88h279
l-20 -60h-259v-37q0 -91 30 -124.5t109 -33.5h51q50 0 81 10.5t44.5 35t17.5 49.5t4 69h83z" />
    <glyph glyph-name="quotesingle" unicode="'" horiz-adv-x="144" 
d="M97 700v-270h-49v270h49z" />
    <glyph glyph-name="quotedblleft" unicode="&#x201c;" horiz-adv-x="491" 
d="M201 629v-101h-80v122q0 37 20.5 57t59.5 20v-43q-18 -2 -25.5 -9.5t-7.5 -24.5v-21h33zM370 629v-101h-81v122q0 37 21 57t60 20v-43q-18 -2 -26 -9.5t-8 -24.5v-21h34z" />
    <glyph glyph-name="guillemotleft" unicode="&#xab;" horiz-adv-x="479" 
d="M423 104h-84l-120 153l120 153h84l-121 -153zM252 104h-84l-120 153l120 153h84l-121 -153z" />
    <glyph glyph-name="guilsinglleft" unicode="&#x2039;" horiz-adv-x="308" 
d="M252 104h-84l-120 153l120 153h84l-121 -153z" />
    <glyph glyph-name="guilsinglright" unicode="&#x203a;" horiz-adv-x="308" 
d="M56 104l121 153l-121 153h84l120 -153l-120 -153h-84z" />
    <glyph glyph-name="fi" unicode="&#xfb01;" horiz-adv-x="562" 
d="M23 449v65h72q-1 12 -1 35q0 98 34.5 138t119.5 40q44 0 85 -4v-69q-54 2 -64 2q-65 0 -81.5 -20.5t-16.5 -86.5v-35h162v-65h-162v-449h-76v449h-72zM406 0v514h77v-514h-77zM406 637v86h77v-86h-77z" />
    <glyph glyph-name="fl" unicode="&#xfb02;" horiz-adv-x="562" 
d="M23 449v65h72q-1 12 -1 35q0 98 34.5 138t119.5 40q44 0 85 -4v-69q-54 2 -64 2q-65 0 -81.5 -20.5t-16.5 -86.5v-35h162v-65h-162v-449h-76v449h-72zM406 0v723h77v-723h-77z" />
    <glyph glyph-name="endash" unicode="&#x2013;" 
d="M0 245v51h500v-51h-500z" />
    <glyph glyph-name="dagger" unicode="&#x2020;" 
d="M288 727v-195h144v-69h-144v-463h-76v463h-144v69h144v195h76z" />
    <glyph glyph-name="daggerdbl" unicode="&#x2021;" 
d="M288 727v-166h144v-69h-144v-256h144v-69h-144v-167h-76v167h-144v69h144v256h-144v69h144v166h76z" />
    <glyph glyph-name="periodcentered" unicode="&#xb7;" horiz-adv-x="338" 
d="M111 388q0 24 17 41t41 17t41 -17t17 -41t-17 -40.5t-41 -16.5t-41 16.5t-17 40.5z" />
    <glyph glyph-name="paragraph" unicode="&#xb6;" 
d="M459 688h-62v-688h-40v688h-92v-688h-40v382q-85 4 -134.5 50t-49.5 120q0 76 52 123t140 47h226v-34z" />
    <glyph glyph-name="bullet" unicode="&#x2022;" horiz-adv-x="590" 
d="M150 372q0 60 42.5 102t102.5 42q59 0 101.5 -42t42.5 -102q0 -59 -42.5 -102t-102.5 -43t-102 42.5t-42 102.5z" />
    <glyph glyph-name="quotesinglbase" unicode="&#x201a;" horiz-adv-x="324" 
d="M122 0v101h80v-122q0 -37 -20.5 -57t-59.5 -20v43q18 2 25.5 9.5t7.5 24.5v21h-33z" />
    <glyph glyph-name="quotedblbase" unicode="&#x201e;" horiz-adv-x="491" 
d="M289 0v101h80v-122q0 -37 -20.5 -57t-59.5 -20v43q18 2 25.5 9.5t7.5 24.5v21h-33zM121 0v101h80v-122q0 -37 -20.5 -57t-59.5 -20v43q18 2 25.5 9.5t7.5 24.5v21h-33z" />
    <glyph glyph-name="quotedblright" unicode="&#x201d;" horiz-adv-x="491" 
d="M289 626v101h80v-122q0 -37 -20.5 -57t-59.5 -20v43q18 2 25.5 9.5t7.5 24.5v21h-33zM121 626v101h80v-122q0 -37 -20.5 -57t-59.5 -20v43q18 2 25.5 9.5t7.5 24.5v21h-33z" />
    <glyph glyph-name="guillemotright" unicode="&#xbb;" horiz-adv-x="479" 
d="M56 104l121 153l-121 153h84l120 -153l-120 -153h-84zM228 104l120 153l-120 153h83l120 -153l-120 -153h-83z" />
    <glyph glyph-name="ellipsis" unicode="&#x2026;" horiz-adv-x="1000" 
d="M63 0v106h85v-106h-85zM396 0v106h85v-106h-85zM730 0v106h85v-106h-85z" />
    <glyph glyph-name="perthousand" unicode="&#x2030;" horiz-adv-x="1336" 
d="M290 -9l257 745h69l-257 -745h-69zM678 -9q-83 0 -115.5 34.5t-32.5 121.5v153q0 86 32.5 121t115.5 35h44q84 0 116.5 -35t32.5 -121v-153q0 -87 -32.5 -121.5t-116.5 -34.5h-44zM189 337h36q57 0 72.5 20t15.5 85v123q0 65 -15 85.5t-73 20.5h-36q-58 0 -73.5 -20.5
t-15.5 -85.5v-123q0 -66 15.5 -85.5t73.5 -19.5zM683 57h35q58 0 73.5 20t15.5 85v123q0 65 -15.5 85.5t-73.5 20.5h-35q-58 0 -73.5 -20.5t-15.5 -85.5v-123q0 -66 15.5 -85.5t73.5 -19.5zM185 271q-84 0 -116.5 34t-32.5 121v154q0 86 33 121t116 35h44q84 0 116 -34.5
t32 -121.5v-154q0 -87 -32 -121t-116 -34h-44zM1108 -9q-84 0 -116.5 34.5t-32.5 121.5v153q0 86 33 121t116 35h44q84 0 116 -34.5t32 -121.5v-153q0 -87 -32 -121.5t-116 -34.5h-44zM1112 57h36q57 0 72.5 20t15.5 85v123q0 65 -15 85.5t-73 20.5h-36q-58 0 -73 -20.5
t-15 -85.5v-123q0 -66 15 -85.5t73 -19.5z" />
    <glyph glyph-name="questiondown" unicode="&#xbf;" horiz-adv-x="519" 
d="M332 528v-58q0 -28 -7 -47.5t-25 -34.5t-34.5 -23.5t-49.5 -23.5q-29 -12 -41.5 -18t-27 -16t-22.5 -21q-19 -28 -19 -105q0 -69 25 -92t92 -23q128 0 151 17q27 21 27 100q0 27 -1 42h80v-72q0 -92 -54 -127t-178 -35t-172 39t-48 153q0 87 18.5 131.5t68.5 67.5
q14 7 40 18t35.5 15.5t25 14t21 16.5t10 18.5t4.5 26.5v37h81zM332 727v-93h-81v93h81z" />
    <glyph glyph-name="grave" unicode="`" 
d="M266 575l-131 170h74l102 -170h-45z" />
    <glyph glyph-name="acute" unicode="&#xb4;" 
d="M234 575h-45l102 170h74z" />
    <glyph glyph-name="circumflex" unicode="&#x2c6;" 
d="M115 575l98 170h74l98 -170h-45l-90 128l-90 -128h-45z" />
    <glyph glyph-name="tilde" unicode="&#x2dc;" 
d="M391 703q-25 -88 -93 -88q-14 0 -32 5l-47 14q-15 5 -26 5q-29 0 -45 -36h-39q21 89 95 89q15 0 26 -4l47 -15q14 -5 27 -5q32 0 47 35h40z" />
    <glyph glyph-name="macron" unicode="&#xaf;" 
d="M125 624v57h250v-57h-250z" />
    <glyph glyph-name="breve" unicode="&#x2d8;" 
d="M116 724h39q3 -37 26 -54t69 -17t68.5 17t25.5 54h40q-4 -67 -36.5 -97.5t-97.5 -30.5t-97.5 31t-36.5 97z" />
    <glyph glyph-name="dotaccent" unicode="&#x2d9;" 
d="M213 610v85h74v-85h-74z" />
    <glyph glyph-name="dieresis" unicode="&#xa8;" 
d="M137 612v80h69v-80h-69zM294 612v80h69v-80h-69z" />
    <glyph glyph-name="ring" unicode="&#x2da;" 
d="M133 666q0 50 34 84t83 34q50 0 84 -34t34 -84q0 -49 -34 -83t-84 -34t-83.5 33.5t-33.5 83.5zM177 666q0 -31 21 -52t52 -21q30 0 51.5 21t21.5 52t-21 52t-52 21t-52 -21t-21 -52z" />
    <glyph glyph-name="cedilla" unicode="&#xb8;" 
d="M255 0v-56h31q49 0 61.5 -14.5t12.5 -65.5q0 -57 -12 -72.5t-61 -15.5h-129v43h104q27 0 32.5 7t5.5 40q0 31 -6 37.5t-33 6.5h-38v90h32z" />
    <glyph glyph-name="hungarumlaut" unicode="&#x2dd;" 
d="M164 575l73 170h65l-102 -170h-36zM279 575l82 170h65l-111 -170h-36z" />
    <glyph glyph-name="ogonek" unicode="&#x2db;" 
d="M287 0l-52 -88q-14 -24 -14 -37q0 -19 19 -19h51v-53h-78q-30 0 -42 9t-12 34q0 26 22 56l73 98h33z" />
    <glyph glyph-name="caron" unicode="&#x2c7;" 
d="M115 745h45l90 -128l90 128h45l-98 -170h-74z" />
    <glyph glyph-name="emdash" unicode="&#x2014;" horiz-adv-x="1000" 
d="M0 296h1000v-51h-1000v51z" />
    <glyph glyph-name="AE" unicode="&#xc6;" horiz-adv-x="1015" 
d="M466 0v181h-362l-99 -181h-86l402 727h653v-77h-433v-238h421v-74h-421v-262h433v-76h-508zM147 258h319v392h-102z" />
    <glyph glyph-name="ordfeminine" unicode="&#xaa;" horiz-adv-x="424" 
d="M314 405q-24 -43 -121 -43q-87 0 -119.5 22.5t-32.5 91.5q0 70 30 94q26 20 119 20q96 0 121 -35v63q0 46 -20 58t-90 12q-50 0 -69 -10t-20 -40h-57v8q0 48 33.5 67t108.5 19q111 0 141 -21q20 -14 25 -34t5 -58v-252h-51zM311 459v37q0 50 -117 50q-55 0 -74 -13
t-19 -51q0 -42 20 -56t79 -14q111 0 111 47z" />
    <glyph glyph-name="Lslash" unicode="&#x141;" horiz-adv-x="597" 
d="M88 0v314l-78 -54v83l78 55v329h79v-286l174 121v-82l-174 -122v-282h412v-76h-491z" />
    <glyph glyph-name="Oslash" unicode="&#xd8;" horiz-adv-x="745" 
d="M65 487q0 140 58 194.5t204 54.5h92q110 0 162 -25l42 58l58 -44l-43 -59q43 -55 43 -179v-247q0 -140 -58 -194.5t-204 -54.5h-92q-118 0 -161 26l-43 -59l-59 45l45 61q-26 26 -35 67.5t-9 108.5v247zM591 600l-383 -524q42 -9 124 -9h81q59 0 91.5 5.5t57.5 26.5
q23 19 29 50.5t6 93.5v241q0 72 -6 116zM156 127l381 523q-30 10 -124 10h-81q-59 0 -91.5 -5.5t-57.5 -26.5q-23 -19 -29 -50.5t-6 -93.5v-241q0 -68 8 -116z" />
    <glyph glyph-name="OE" unicode="&#x152;" horiz-adv-x="1148" 
d="M597 0v67q-27 -44 -68 -60t-110 -16h-92q-146 0 -204 54.5t-58 194.5v247q0 140 58 194.5t204 54.5h92q70 0 111.5 -16.5t66.5 -59.5v67h510v-77h-430v-238h418v-74h-418v-262h430v-76h-510zM148 484v-241q0 -62 6 -93.5t29 -50.5q25 -21 57.5 -26.5t91.5 -5.5h81
q59 0 91.5 5.5t57.5 26.5q23 19 29 50.5t6 93.5v241q0 62 -6 93.5t-29 50.5q-25 21 -57.5 26.5t-91.5 5.5h-81q-59 0 -91.5 -5.5t-57.5 -26.5q-23 -19 -29 -50.5t-6 -93.5z" />
    <glyph glyph-name="ordmasculine" unicode="&#xba;" horiz-adv-x="424" 
d="M199 362q-87 0 -121 31.5t-34 110.5v86q0 79 34 110.5t120 31.5h27q87 0 121 -31.5t34 -110.5v-86q0 -79 -34 -110.5t-120 -31.5h-27zM321 516v62q0 65 -17 85t-79 20h-27q-62 0 -78.5 -20t-16.5 -85v-62q0 -65 16.5 -85.5t78.5 -20.5h27q62 0 79 20.5t17 85.5z" />
    <glyph glyph-name="ae" unicode="&#xe6;" horiz-adv-x="917" 
d="M415 131v54q0 38 -38 54.5t-118 16.5q-73 0 -99 -18t-26 -73q0 -61 27 -81t106 -20q148 0 148 67zM73 387v10q0 72 45 98t153 26q84 0 126.5 -11t60.5 -45q24 33 60.5 44.5t97.5 11.5h37q115 0 160.5 -45t45.5 -158v-78h-370q-1 -16 -1 -43q0 -82 26 -108.5t103 -26.5h36
q65 0 93 18t33 71h79q-6 -85 -54.5 -121.5t-150.5 -36.5h-36q-73 0 -111.5 16t-61.5 62q-30 -44 -78 -61t-125 -17q-105 0 -146 34.5t-41 128.5q0 99 41 134q35 29 158 29q66 0 104.5 -11t57.5 -39v89q0 66 -27 83t-120 17q-67 0 -92.5 -13.5t-26.5 -57.5h-76zM489 307h292
v20q0 74 -27 99t-101 25h-36q-74 0 -101 -25t-27 -99v-20z" />
    <glyph glyph-name="dotlessi" unicode="&#x131;" horiz-adv-x="234" 
d="M79 0v514h76v-514h-76z" />
    <glyph glyph-name="lslash" unicode="&#x142;" horiz-adv-x="264" 
d="M106 0v380l-88 -62v78l88 62v269h76v-227l88 62v-78l-88 -62v-422h-76z" />
    <glyph glyph-name="oslash" unicode="&#xf8;" horiz-adv-x="565" 
d="M428 213v88q0 63 -4 98l-242 -331q42 -6 82 -6h36q82 0 105 29t23 122zM265 -7q-77 0 -118 17l-52 -69l-58 44l52 71q-31 42 -31 140v122q0 113 45.5 158t160.5 45h36q85 0 119 -17l51 69l57 -43l-51 -70q31 -47 31 -142v-122q0 -113 -45.5 -158t-160.5 -45h-36zM380 445
q-29 6 -80 6h-36q-82 0 -104.5 -28.5t-22.5 -121.5v-88q0 -66 3 -95z" />
    <glyph glyph-name="oe" unicode="&#x153;" horiz-adv-x="931" 
d="M428 213v88q0 93 -22.5 121.5t-105.5 28.5h-36q-82 0 -104.5 -28.5t-22.5 -121.5v-88q0 -93 22.5 -122t104.5 -29h36q82 0 105 29t23 122zM265 -7q-115 0 -161 45t-46 158v122q0 113 45.5 158t160.5 45h36q63 0 101 -12.5t65 -49.5q23 36 61 49t103 13h36q115 0 161 -45
t46 -158v-78h-371q-1 -16 -1 -43q0 -82 26 -108.5t103 -26.5h36q65 0 93.5 18t33.5 71h78q-6 -85 -54.5 -121.5t-150.5 -36.5h-36q-65 0 -103.5 13t-61.5 50q-25 -38 -62.5 -50.5t-101.5 -12.5h-36zM502 307h292v20q0 74 -27 99t-101 25h-36q-74 0 -101 -25t-27 -99v-20z
" />
    <glyph glyph-name="germandbls" unicode="&#xdf;" horiz-adv-x="528" 
d="M62 0v522q0 113 41.5 157.5t152.5 44.5q106 0 152 -42t46 -143q0 -56 -19 -88t-65 -48q66 -14 90.5 -58.5t24.5 -136.5q0 -116 -39.5 -166t-137.5 -50q-32 0 -76 6v70q29 -7 62 -7q68 0 89.5 30t21.5 117q0 93 -20 124t-97 31h-56v63h43q58 0 80 26.5t22 92.5
q0 64 -26.5 87.5t-95.5 23.5q-75 0 -96 -29t-21 -113v-514h-76z" />
    <glyph glyph-name="Aacute" unicode="&#xc1;" horiz-adv-x="692" 
d="M11 0l269 727h132l270 -727h-83l-69 186h-368l-68 -186h-83zM189 258h315l-145 392h-26zM330 790h-45l102 170h74z" />
    <glyph glyph-name="Acircumflex" unicode="&#xc2;" horiz-adv-x="692" 
d="M11 0l269 727h132l270 -727h-83l-69 186h-368l-68 -186h-83zM189 258h315l-145 392h-26zM211 790l98 170h74l98 -170h-45l-90 128l-90 -128h-45z" />
    <glyph glyph-name="Adieresis" unicode="&#xc4;" horiz-adv-x="692" 
d="M11 0l269 727h132l270 -727h-83l-69 186h-368l-68 -186h-83zM189 258h315l-145 392h-26zM233 827v80h69v-80h-69zM390 827v80h69v-80h-69z" />
    <glyph glyph-name="Agrave" unicode="&#xc0;" horiz-adv-x="692" 
d="M11 0l269 727h132l270 -727h-83l-69 186h-368l-68 -186h-83zM189 258h315l-145 392h-26zM362 790l-131 170h74l102 -170h-45z" />
    <glyph glyph-name="Aring" unicode="&#xc5;" horiz-adv-x="692" 
d="M11 0l269 727h132l270 -727h-83l-69 186h-368l-68 -186h-83zM189 258h315l-145 392h-26zM231 872q0 50 34 84t83 34q50 0 84 -34t34 -84q0 -49 -34 -83t-84 -34t-83.5 33.5t-33.5 83.5zM275 872q0 -31 21.5 -52t52.5 -21q30 0 51.5 21t21.5 52t-21 52t-52 21t-52.5 -21
t-21.5 -52z" />
    <glyph glyph-name="Atilde" unicode="&#xc3;" horiz-adv-x="692" 
d="M11 0l269 727h132l270 -727h-83l-69 186h-368l-68 -186h-83zM189 258h315l-145 392h-26zM487 918q-25 -88 -93 -88q-14 0 -32 5l-47 14q-15 5 -26 5q-29 0 -45 -36h-39q21 89 95 89q15 0 26 -4l47 -15q14 -5 27 -5q32 0 47 35h40z" />
    <glyph glyph-name="Ccedilla" unicode="&#xc7;" horiz-adv-x="683" 
d="M65 487q0 139 53 194t189 55h85q131 0 187 -45.5t56 -161.5v-32h-83v20q0 86 -35.5 114.5t-130.5 28.5h-56q-57 0 -90 -6.5t-56 -28.5q-24 -23 -30 -57t-6 -101v-207q0 -67 6 -101t30 -57t56 -29t90 -6h56q97 0 132 30t35 123q0 23 -1 35h83v-48q0 -124 -53.5 -170
t-189.5 -46h-85q-136 0 -189 55t-53 194v247zM359 0v-56h31q49 0 61.5 -14.5t12.5 -65.5q0 -57 -12 -72.5t-61 -15.5h-129v43h104q27 0 32.5 7t5.5 40q0 31 -6 37.5t-33 6.5h-38v90h32z" />
    <glyph glyph-name="Eacute" unicode="&#xc9;" horiz-adv-x="639" 
d="M88 0v727h510v-77h-430v-238h418v-74h-418v-262h430v-76h-510zM342 790h-45l102 170h74z" />
    <glyph glyph-name="Ecircumflex" unicode="&#xca;" horiz-adv-x="639" 
d="M88 0v727h510v-77h-430v-238h418v-74h-418v-262h430v-76h-510zM223 790l98 170h74l98 -170h-45l-90 128l-90 -128h-45z" />
    <glyph glyph-name="Edieresis" unicode="&#xcb;" horiz-adv-x="639" 
d="M88 0v727h510v-77h-430v-238h418v-74h-418v-262h430v-76h-510zM245 827v80h69v-80h-69zM402 827v80h69v-80h-69z" />
    <glyph glyph-name="Egrave" unicode="&#xc8;" horiz-adv-x="639" 
d="M88 0v727h510v-77h-430v-238h418v-74h-418v-262h430v-76h-510zM374 790l-131 170h74l102 -170h-45z" />
    <glyph glyph-name="Eth" unicode="&#xd0;" horiz-adv-x="773" 
d="M111 0v346h-111v70h111v311h351q137 0 192 -54.5t55 -188.5v-240q0 -135 -55 -189.5t-192 -54.5h-351zM191 72h259q103 0 139 34.5t36 136.5v235q0 106 -35 141.5t-140 35.5h-259v-239h218v-70h-218v-274z" />
    <glyph glyph-name="Iacute" unicode="&#xcd;" horiz-adv-x="257" 
d="M88 0v727h81v-727h-81zM113 790h-45l102 170h74z" />
    <glyph glyph-name="Icircumflex" unicode="&#xce;" horiz-adv-x="257" 
d="M88 0v727h81v-727h-81zM-6 790l98 170h74l98 -170h-45l-90 128l-90 -128h-45z" />
    <glyph glyph-name="Idieresis" unicode="&#xcf;" horiz-adv-x="257" 
d="M88 0v727h81v-727h-81zM16 827v80h69v-80h-69zM173 827v80h69v-80h-69z" />
    <glyph glyph-name="Igrave" unicode="&#xcc;" horiz-adv-x="257" 
d="M88 0v727h81v-727h-81zM145 790l-131 170h74l102 -170h-45z" />
    <glyph glyph-name="Ntilde" unicode="&#xd1;" horiz-adv-x="775" 
d="M88 0v727h124l394 -649v649h80v-727h-124l-394 650v-650h-80zM539 918q-25 -88 -93 -88q-14 0 -32 5l-47 14q-15 5 -26 5q-29 0 -45 -36h-39q21 89 95 89q15 0 26 -4l47 -15q14 -5 27 -5q32 0 47 35h40z" />
    <glyph glyph-name="Oacute" unicode="&#xd3;" horiz-adv-x="745" 
d="M65 487q0 140 58 194.5t204 54.5h92q148 0 205 -54t57 -195v-247q0 -140 -58 -194.5t-204 -54.5h-92q-146 0 -204 54.5t-58 194.5v247zM395 660h-45q-44 0 -66.5 -1.5t-50 -9.5t-46.5 -25q-25 -21 -32 -56t-7 -102v-206q0 -67 7 -101.5t32 -55.5q28 -24 63 -30t100 -6h45
q44 0 67 1.5t50.5 9.5t46.5 25q25 21 31.5 55.5t6.5 101.5v207q0 67 -7 102t-32 56q-27 23 -62.5 29t-100.5 6zM357 790h-45l102 170h74z" />
    <glyph glyph-name="Ocircumflex" unicode="&#xd4;" horiz-adv-x="745" 
d="M65 487q0 140 58 194.5t204 54.5h92q148 0 205 -54t57 -195v-247q0 -140 -58 -194.5t-204 -54.5h-92q-146 0 -204 54.5t-58 194.5v247zM395 660h-45q-44 0 -66.5 -1.5t-50 -9.5t-46.5 -25q-25 -21 -32 -56t-7 -102v-206q0 -67 7 -101.5t32 -55.5q28 -24 63 -30t100 -6h45
q44 0 67 1.5t50.5 9.5t46.5 25q25 21 31.5 55.5t6.5 101.5v207q0 67 -7 102t-32 56q-27 23 -62.5 29t-100.5 6zM238 790l98 170h74l98 -170h-45l-90 128l-90 -128h-45z" />
    <glyph glyph-name="Odieresis" unicode="&#xd6;" horiz-adv-x="745" 
d="M65 487q0 140 58 194.5t204 54.5h92q148 0 205 -54t57 -195v-247q0 -140 -58 -194.5t-204 -54.5h-92q-146 0 -204 54.5t-58 194.5v247zM395 660h-45q-44 0 -66.5 -1.5t-50 -9.5t-46.5 -25q-25 -21 -32 -56t-7 -102v-206q0 -67 7 -101.5t32 -55.5q28 -24 63 -30t100 -6h45
q44 0 67 1.5t50.5 9.5t46.5 25q25 21 31.5 55.5t6.5 101.5v207q0 67 -7 102t-32 56q-27 23 -62.5 29t-100.5 6zM260 827v80h69v-80h-69zM417 827v80h69v-80h-69z" />
    <glyph glyph-name="Ograve" unicode="&#xd2;" horiz-adv-x="745" 
d="M65 487q0 140 58 194.5t204 54.5h92q148 0 205 -54t57 -195v-247q0 -140 -58 -194.5t-204 -54.5h-92q-146 0 -204 54.5t-58 194.5v247zM395 660h-45q-44 0 -66.5 -1.5t-50 -9.5t-46.5 -25q-25 -21 -32 -56t-7 -102v-206q0 -67 7 -101.5t32 -55.5q28 -24 63 -30t100 -6h45
q44 0 67 1.5t50.5 9.5t46.5 25q25 21 31.5 55.5t6.5 101.5v207q0 67 -7 102t-32 56q-27 23 -62.5 29t-100.5 6zM389 790l-131 170h74l102 -170h-45z" />
    <glyph glyph-name="Otilde" unicode="&#xd5;" horiz-adv-x="745" 
d="M65 487q0 140 58 194.5t204 54.5h92q148 0 205 -54t57 -195v-247q0 -140 -58 -194.5t-204 -54.5h-92q-146 0 -204 54.5t-58 194.5v247zM395 660h-45q-44 0 -66.5 -1.5t-50 -9.5t-46.5 -25q-25 -21 -32 -56t-7 -102v-206q0 -67 7 -101.5t32 -55.5q28 -24 63 -30t100 -6h45
q44 0 67 1.5t50.5 9.5t46.5 25q25 21 31.5 55.5t6.5 101.5v207q0 67 -7 102t-32 56q-27 23 -62.5 29t-100.5 6zM514 918q-25 -88 -93 -88q-14 0 -32 5l-47 14q-15 5 -26 5q-29 0 -45 -36h-39q21 89 95 89q15 0 26 -4l47 -15q14 -5 27 -5q32 0 47 35h40z" />
    <glyph glyph-name="Scaron" unicode="&#x160;" horiz-adv-x="713" 
d="M69 237h80v-14q0 -61 9 -93t33 -46q22 -12 65.5 -15t139.5 -3q116 0 147 34q18 19 18 97q0 73 -13 97.5t-68 28.5l-224 18q-99 8 -138.5 49.5t-39.5 143.5q0 119 54 166q26 23 70.5 29.5t130.5 6.5h26q95 0 146 -8.5t88 -39.5q41 -35 41 -131q0 -23 -1 -35h-81v18
q0 73 -20 93q-17 17 -61.5 22t-139.5 5q-104 0 -137 -21.5t-33 -105.5q0 -63 19 -86t72 -28l229 -19q91 -8 126.5 -50.5t35.5 -138.5q0 -63 -8 -101.5t-32 -65.5q-31 -36 -82 -45t-152 -9h-36q-85 0 -132 8t-80 38q-53 46 -53 165q0 24 1 36zM222 960h45l90 -128l90 128h45
l-98 -170h-74z" />
    <glyph glyph-name="Thorn" unicode="&#xde;" horiz-adv-x="655" 
d="M88 727h80v-141h226q120 0 167.5 -35t47.5 -131v-111q0 -98 -47.5 -133t-167.5 -35h-226v-141h-80v727zM168 509v-291h225q73 0 102.5 17t29.5 75v107q0 58 -28 75t-104 17h-225z" />
    <glyph glyph-name="Uacute" unicode="&#xda;" horiz-adv-x="748" 
d="M81 727h81v-477q0 -61 6 -92t28 -51q23 -21 53.5 -26.5t86.5 -5.5h76q56 0 87 5.5t54 26.5q21 19 27 50t6 93v477h81v-487q0 -139 -55 -194t-194 -55h-88q-139 0 -194 55t-55 194v487zM358 790h-45l102 170h74z" />
    <glyph glyph-name="Ucircumflex" unicode="&#xdb;" horiz-adv-x="748" 
d="M81 727h81v-477q0 -61 6 -92t28 -51q23 -21 53.5 -26.5t86.5 -5.5h76q56 0 87 5.5t54 26.5q21 19 27 50t6 93v477h81v-487q0 -139 -55 -194t-194 -55h-88q-139 0 -194 55t-55 194v487zM239 790l98 170h74l98 -170h-45l-90 128l-90 -128h-45z" />
    <glyph glyph-name="Udieresis" unicode="&#xdc;" horiz-adv-x="748" 
d="M81 727h81v-477q0 -61 6 -92t28 -51q23 -21 53.5 -26.5t86.5 -5.5h76q56 0 87 5.5t54 26.5q21 19 27 50t6 93v477h81v-487q0 -139 -55 -194t-194 -55h-88q-139 0 -194 55t-55 194v487zM261 827v80h69v-80h-69zM418 827v80h69v-80h-69z" />
    <glyph glyph-name="Ugrave" unicode="&#xd9;" horiz-adv-x="748" 
d="M81 727h81v-477q0 -61 6 -92t28 -51q23 -21 53.5 -26.5t86.5 -5.5h76q56 0 87 5.5t54 26.5q21 19 27 50t6 93v477h81v-487q0 -139 -55 -194t-194 -55h-88q-139 0 -194 55t-55 194v487zM390 790l-131 170h74l102 -170h-45z" />
    <glyph glyph-name="Yacute" unicode="&#xdd;" horiz-adv-x="595" 
d="M337 0h-79v322l-301 405h95l245 -339l245 339h95l-300 -404v-323zM282 790h-45l102 170h74z" />
    <glyph glyph-name="Ydieresis" unicode="&#x178;" horiz-adv-x="595" 
d="M337 0h-79v322l-301 405h95l245 -339l245 339h95l-300 -404v-323zM185 827v80h69v-80h-69zM342 827v80h69v-80h-69z" />
    <glyph glyph-name="Zcaron" unicode="&#x17d;" horiz-adv-x="650" 
d="M47 0v87l467 568h-446v72h531v-85l-464 -566h464v-76h-552zM190 960h45l90 -128l90 128h45l-98 -170h-74z" />
    <glyph glyph-name="aacute" unicode="&#xe1;" horiz-adv-x="565" 
d="M419 54q-34 -61 -162 -61q-116 0 -159.5 32.5t-43.5 130.5q0 99 41 134q35 29 158 29q66 0 104.5 -11t57.5 -39v89q0 66 -27 83t-120 17q-67 0 -92.5 -14t-26.5 -57h-76v12q0 68 44.5 95t145.5 27q149 0 187 -29q27 -21 34 -49.5t7 -82.5v-360h-69zM415 131v54
q0 38 -38 54.5t-118 16.5q-73 0 -99 -18t-26 -73q0 -61 27 -81t106 -20q148 0 148 67zM267 575h-45l102 170h74z" />
    <glyph glyph-name="acircumflex" unicode="&#xe2;" horiz-adv-x="565" 
d="M419 54q-34 -61 -162 -61q-116 0 -159.5 32.5t-43.5 130.5q0 99 41 134q35 29 158 29q66 0 104.5 -11t57.5 -39v89q0 66 -27 83t-120 17q-67 0 -92.5 -14t-26.5 -57h-76v12q0 68 44.5 95t145.5 27q149 0 187 -29q27 -21 34 -49.5t7 -82.5v-360h-69zM415 131v54
q0 38 -38 54.5t-118 16.5q-73 0 -99 -18t-26 -73q0 -61 27 -81t106 -20q148 0 148 67zM148 575l98 170h74l98 -170h-45l-90 128l-90 -128h-45z" />
    <glyph glyph-name="adieresis" unicode="&#xe4;" horiz-adv-x="565" 
d="M419 54q-34 -61 -162 -61q-116 0 -159.5 32.5t-43.5 130.5q0 99 41 134q35 29 158 29q66 0 104.5 -11t57.5 -39v89q0 66 -27 83t-120 17q-67 0 -92.5 -14t-26.5 -57h-76v12q0 68 44.5 95t145.5 27q149 0 187 -29q27 -21 34 -49.5t7 -82.5v-360h-69zM415 131v54
q0 38 -38 54.5t-118 16.5q-73 0 -99 -18t-26 -73q0 -61 27 -81t106 -20q148 0 148 67zM170 612v80h69v-80h-69zM327 612v80h69v-80h-69z" />
    <glyph glyph-name="agrave" unicode="&#xe0;" horiz-adv-x="565" 
d="M419 54q-34 -61 -162 -61q-116 0 -159.5 32.5t-43.5 130.5q0 99 41 134q35 29 158 29q66 0 104.5 -11t57.5 -39v89q0 66 -27 83t-120 17q-67 0 -92.5 -14t-26.5 -57h-76v12q0 68 44.5 95t145.5 27q149 0 187 -29q27 -21 34 -49.5t7 -82.5v-360h-69zM415 131v54
q0 38 -38 54.5t-118 16.5q-73 0 -99 -18t-26 -73q0 -61 27 -81t106 -20q148 0 148 67zM299 575l-131 170h74l102 -170h-45z" />
    <glyph glyph-name="aring" unicode="&#xe5;" horiz-adv-x="565" 
d="M415 131v54q0 38 -38 54.5t-118 16.5q-73 0 -99 -18t-26 -73q0 -61 27 -81t106 -20q148 0 148 67zM419 54q-34 -61 -162 -61q-116 0 -159.5 32.5t-43.5 130.5q0 99 41 134q35 29 158 29q66 0 104.5 -11t57.5 -39v89q0 66 -27 83t-120 17q-67 0 -92.5 -14t-26.5 -57h-76
v10q0 72 45.5 98t152.5 26q85 0 130 -9t65 -36q25 -32 25 -106v-370h-69zM172 667q0 49 34 83t84 34t84 -34t34 -83t-34 -83t-84 -34t-84 34t-34 83zM217 667q0 -31 21 -52t52 -21q30 0 51.5 21t21.5 52t-21 52t-52 21t-52 -21t-21 -52z" />
    <glyph glyph-name="atilde" unicode="&#xe3;" horiz-adv-x="565" 
d="M419 54q-34 -61 -162 -61q-116 0 -159.5 32.5t-43.5 130.5q0 99 41 134q35 29 158 29q66 0 104.5 -11t57.5 -39v89q0 66 -27 83t-120 17q-67 0 -92.5 -14t-26.5 -57h-76v12q0 68 44.5 95t145.5 27q149 0 187 -29q27 -21 34 -49.5t7 -82.5v-360h-69zM415 131v54
q0 38 -38 54.5t-118 16.5q-73 0 -99 -18t-26 -73q0 -61 27 -81t106 -20q148 0 148 67zM424 703q-25 -88 -93 -88q-14 0 -32 5l-47 14q-15 5 -26 5q-29 0 -45 -36h-39q21 89 95 89q15 0 26 -4l47 -15q14 -5 27 -5q32 0 47 35h40z" />
    <glyph glyph-name="brokenbar" unicode="&#xa6;" 
d="M277 699v-370h-53v370h53zM277 199v-370h-53v370h53z" />
    <glyph glyph-name="ccedilla" unicode="&#xe7;" horiz-adv-x="565" 
d="M265 -7q-115 0 -161 45t-46 158v122q0 113 45.5 158t160.5 45h36q108 0 156.5 -41t50.5 -138h-79q-2 65 -29.5 87t-98.5 22h-36q-82 0 -104.5 -28.5t-22.5 -121.5v-88q0 -93 22.5 -122t104.5 -29h36q72 0 100 24.5t28 94.5v9h79v-10q0 -101 -48 -144t-158 -43h-36zM288 0
v-56h31q49 0 61.5 -14.5t12.5 -65.5q0 -57 -12 -72.5t-61 -15.5h-129v43h104q27 0 32.5 7t5.5 40q0 31 -6 37.5t-33 6.5h-38v90h32z" />
    <glyph glyph-name="copyright" unicode="&#xa9;" horiz-adv-x="833" 
d="M416 711q150 0 255 -105q103 -103 103 -253t-103 -251q-109 -107 -255 -107t-252 106q-105 105 -105 252q0 146 107 255q101 103 250 103zM735 353q0 133 -92 225q-94 94 -227 94t-223 -92q-95 -97 -95 -227t94 -224t224 -94q131 0 228 95q91 89 91 223zM524 447
q-9 39 -37 60.5t-69 21.5q-59 0 -92.5 -46t-33.5 -131q0 -82 34 -127.5t92 -45.5q44 0 74 24.5t38 67.5h56q-5 -61 -53 -100t-118 -39q-86 0 -136 59t-50 164q0 100 53 159.5t138 59.5q66 0 110.5 -35t50.5 -92h-57z" />
    <glyph glyph-name="degree" unicode="&#xb0;" horiz-adv-x="329" 
d="M165 709q56 0 95.5 -40t39.5 -96t-39.5 -96t-96.5 -40t-96 39.5t-39 96.5t40 96.5t96 39.5zM266 573q0 42 -29.5 72t-71.5 30t-72 -30t-30 -72t30 -71.5t72 -29.5q43 0 72 29.5t29 71.5z" />
    <glyph glyph-name="divide" unicode="&#xf7;" horiz-adv-x="833" 
d="M417 523q22 0 37 -15.5t15 -37.5q0 -21 -15 -36.5t-37 -15.5t-37 15t-15 37t15.5 37.5t36.5 15.5zM709 322v-48h-585v48h585zM417 178q22 0 37 -15t15 -37q0 -21 -15 -36.5t-37 -15.5t-37 15t-15 37t15.5 37t36.5 15z" />
    <glyph glyph-name="eacute" unicode="&#xe9;" horiz-adv-x="565" 
d="M265 -7q-115 0 -161 45t-46 158v122q0 113 45.5 158t160.5 45h36q115 0 161 -45t46 -158v-78h-370q-1 -16 -1 -44q0 -81 26 -107.5t102 -26.5h36q65 0 93.5 18t33.5 71h79q-6 -85 -54.5 -121.5t-150.5 -36.5h-36zM137 307h291v20q0 74 -27 99t-101 25h-36
q-74 0 -100.5 -25t-26.5 -99v-20zM270 575h-45l102 170h74z" />
    <glyph glyph-name="ecircumflex" unicode="&#xea;" horiz-adv-x="565" 
d="M265 -7q-115 0 -161 45t-46 158v122q0 113 45.5 158t160.5 45h36q115 0 161 -45t46 -158v-78h-370q-1 -16 -1 -44q0 -81 26 -107.5t102 -26.5h36q65 0 93.5 18t33.5 71h79q-6 -85 -54.5 -121.5t-150.5 -36.5h-36zM137 307h291v20q0 74 -27 99t-101 25h-36
q-74 0 -100.5 -25t-26.5 -99v-20zM151 575l98 170h74l98 -170h-45l-90 128l-90 -128h-45z" />
    <glyph glyph-name="edieresis" unicode="&#xeb;" horiz-adv-x="565" 
d="M265 -7q-115 0 -161 45t-46 158v122q0 113 45.5 158t160.5 45h36q115 0 161 -45t46 -158v-78h-370q-1 -16 -1 -44q0 -81 26 -107.5t102 -26.5h36q65 0 93.5 18t33.5 71h79q-6 -85 -54.5 -121.5t-150.5 -36.5h-36zM137 307h291v20q0 74 -27 99t-101 25h-36
q-74 0 -100.5 -25t-26.5 -99v-20zM173 612v80h69v-80h-69zM330 612v80h69v-80h-69z" />
    <glyph glyph-name="egrave" unicode="&#xe8;" horiz-adv-x="565" 
d="M265 -7q-115 0 -161 45t-46 158v122q0 113 45.5 158t160.5 45h36q115 0 161 -45t46 -158v-78h-370q-1 -16 -1 -44q0 -81 26 -107.5t102 -26.5h36q65 0 93.5 18t33.5 71h79q-6 -85 -54.5 -121.5t-150.5 -36.5h-36zM137 307h291v20q0 74 -27 99t-101 25h-36
q-74 0 -100.5 -25t-26.5 -99v-20zM302 575l-131 170h74l102 -170h-45z" />
    <glyph glyph-name="eth" unicode="&#xf0;" horiz-adv-x="565" 
d="M336 625l-162 -52l-21 56l141 46l-38 52h81l25 -32l100 33l22 -55l-80 -27q103 -150 103 -328v-122q0 -113 -45.5 -158t-160.5 -45h-36q-115 0 -161 45t-46 158v122q0 113 45.5 158t160.5 45h29q75 0 127 -67q-25 86 -84 171zM300 451h-36q-82 0 -104.5 -28.5
t-22.5 -121.5v-88q0 -93 22.5 -122t104.5 -29h36q83 0 105.5 28.5t22.5 122.5v88q0 67 -37 108.5t-91 41.5z" />
    <glyph glyph-name="iacute" unicode="&#xed;" horiz-adv-x="234" 
d="M79 0v514h76v-514h-76zM101 575h-45l102 170h74z" />
    <glyph glyph-name="icircumflex" unicode="&#xee;" horiz-adv-x="234" 
d="M79 0v514h76v-514h-76zM-18 575l98 170h74l98 -170h-45l-90 128l-90 -128h-45z" />
    <glyph glyph-name="idieresis" unicode="&#xef;" horiz-adv-x="234" 
d="M79 0v514h76v-514h-76zM4 612v80h69v-80h-69zM161 612v80h69v-80h-69z" />
    <glyph glyph-name="igrave" unicode="&#xec;" horiz-adv-x="234" 
d="M79 0v514h76v-514h-76zM133 575l-131 170h74l102 -170h-45z" />
    <glyph glyph-name="logicalnot" unicode="&#xac;" horiz-adv-x="833" 
d="M709 419v-245h-47v196h-538v49h585z" />
    <glyph glyph-name="minus" unicode="&#x2212;" horiz-adv-x="833" 
d="M709 322v-48h-585v48h585z" />
    <glyph glyph-name="mu" unicode="&#xb5;" horiz-adv-x="542" 
d="M168 520l-61 -289q-8 -37 -8 -68q0 -57 28.5 -88t81.5 -31q61 0 104.5 52t65.5 152l59 272h68l-80 -376q-11 -49 -11 -65q0 -32 33 -32q8 0 18 1l-10 -54q-19 -5 -42 -5q-67 0 -67 71v7q-43 -79 -146 -79q-92 0 -131 76l-56 -272h-68l154 728h68z" />
    <glyph glyph-name="multiply" unicode="&#xd7;" horiz-adv-x="833" 
d="M418 332l235 235l34 -34l-235 -235l235 -235l-34 -34l-235 235l-235 -235l-34 34l235 235l-235 235l34 34z" />
    <glyph glyph-name="ntilde" unicode="&#xf1;" horiz-adv-x="576" 
d="M79 0v514h73v-70q36 77 168 77q102 0 142 -41.5t40 -142.5v-337h-76v321q0 77 -22 104t-94 27q-80 0 -117.5 -37t-37.5 -116v-299h-76zM444 703q-25 -88 -93 -88q-14 0 -32 5l-47 14q-15 5 -26 5q-29 0 -45 -36h-39q21 89 95 89q15 0 26 -4l47 -15q14 -5 27 -5
q32 0 47 35h40z" />
    <glyph glyph-name="oacute" unicode="&#xf3;" horiz-adv-x="565" 
d="M265 -7q-115 0 -161 45t-46 158v122q0 113 45.5 158t160.5 45h36q115 0 161 -45t46 -158v-122q0 -113 -45.5 -158t-160.5 -45h-36zM428 213v88q0 93 -22.5 121.5t-105.5 28.5h-36q-82 0 -104.5 -28.5t-22.5 -121.5v-88q0 -93 22.5 -122t104.5 -29h36q82 0 105 29t23 122z
M267 575h-45l102 170h74z" />
    <glyph glyph-name="ocircumflex" unicode="&#xf4;" horiz-adv-x="565" 
d="M265 -7q-115 0 -161 45t-46 158v122q0 113 45.5 158t160.5 45h36q115 0 161 -45t46 -158v-122q0 -113 -45.5 -158t-160.5 -45h-36zM428 213v88q0 93 -22.5 121.5t-105.5 28.5h-36q-82 0 -104.5 -28.5t-22.5 -121.5v-88q0 -93 22.5 -122t104.5 -29h36q82 0 105 29t23 122z
M148 575l98 170h74l98 -170h-45l-90 128l-90 -128h-45z" />
    <glyph glyph-name="odieresis" unicode="&#xf6;" horiz-adv-x="565" 
d="M265 -7q-115 0 -161 45t-46 158v122q0 113 45.5 158t160.5 45h36q115 0 161 -45t46 -158v-122q0 -113 -45.5 -158t-160.5 -45h-36zM428 213v88q0 93 -22.5 121.5t-105.5 28.5h-36q-82 0 -104.5 -28.5t-22.5 -121.5v-88q0 -93 22.5 -122t104.5 -29h36q82 0 105 29t23 122z
M170 612v80h69v-80h-69zM327 612v80h69v-80h-69z" />
    <glyph glyph-name="ograve" unicode="&#xf2;" horiz-adv-x="565" 
d="M265 -7q-115 0 -161 45t-46 158v122q0 113 45.5 158t160.5 45h36q115 0 161 -45t46 -158v-122q0 -113 -45.5 -158t-160.5 -45h-36zM428 213v88q0 93 -22.5 121.5t-105.5 28.5h-36q-82 0 -104.5 -28.5t-22.5 -121.5v-88q0 -93 22.5 -122t104.5 -29h36q82 0 105 29t23 122z
M299 575l-131 170h74l102 -170h-45z" />
    <glyph glyph-name="onehalf" unicode="&#xbd;" horiz-adv-x="1019" 
d="M225 320v367l-108 -97l-31 28l123 109h66v-407h-50zM259 -9l424 745h76l-423 -745h-77zM639 0v69q0 57 24 82q21 23 91 41l103 25q50 12 60 27q9 10 9 54q0 47 -20 60q-16 12 -113 12q-63 0 -82.5 -12t-19.5 -56v-24h-52v27q0 64 34.5 85.5t122.5 21.5q95 0 121 -10
q37 -15 48 -37.5t11 -70.5q0 -54 -17.5 -78t-74.5 -38l-128 -32q-37 -10 -51 -21t-14 -38v-44h285v-43h-337z" />
    <glyph glyph-name="onequarter" unicode="&#xbc;" horiz-adv-x="1019" 
d="M225 320v367l-108 -97l-31 28l123 109h66v-407h-50zM259 -9l424 745h76l-423 -745h-77zM628 95v52l224 260h70v-269h70v-43h-70v-95h-51v95h-243zM677 138h194v224z" />
    <glyph glyph-name="onesuperior" unicode="&#xb9;" horiz-adv-x="446" 
d="M236 291v393l-113 -103l-33 29l129 117h69v-436h-52z" />
    <glyph glyph-name="otilde" unicode="&#xf5;" horiz-adv-x="565" 
d="M265 -7q-115 0 -161 45t-46 158v122q0 113 45.5 158t160.5 45h36q115 0 161 -45t46 -158v-122q0 -113 -45.5 -158t-160.5 -45h-36zM428 213v88q0 93 -22.5 121.5t-105.5 28.5h-36q-82 0 -104.5 -28.5t-22.5 -121.5v-88q0 -93 22.5 -122t104.5 -29h36q82 0 105 29t23 122z
M424 703q-25 -88 -93 -88q-14 0 -32 5l-47 14q-15 5 -26 5q-29 0 -45 -36h-39q21 89 95 89q15 0 26 -4l47 -15q14 -5 27 -5q32 0 47 35h40z" />
    <glyph glyph-name="plusminus" unicode="&#xb1;" horiz-adv-x="833" 
d="M441 571v-170h268v-48h-268v-170h-48v170h-269v48h269v170h48zM709 73v-48h-585v48h585z" />
    <glyph glyph-name="registered" unicode="&#xae;" horiz-adv-x="833" 
d="M416 711q152 0 255 -105q103 -103 103 -253t-103 -251q-109 -107 -255 -107q-148 0 -252 106q-105 105 -105 252q0 146 107 255q101 103 250 103zM735 352q0 135 -91 226q-94 94 -228 94q-130 0 -222 -92q-96 -98 -96 -227q0 -130 94 -224t224 -94q131 0 228 95
q91 88 91 222zM427 565q86 0 128 -27.5t42 -86.5q0 -43 -26 -72.5t-71 -35.5l92 -190h-71l-87 181h-96v-181h-62v412h151zM415 523h-77v-148h77q63 0 90.5 15.5t27.5 56.5t-28 58.5t-90 17.5z" />
    <glyph glyph-name="scaron" unicode="&#x161;" horiz-adv-x="583" 
d="M60 153h77v-12q0 -50 32 -66.5t115 -16.5q88 0 116.5 14t28.5 74q0 54 -21 69t-92 19q-25 1 -57 2t-50.5 2t-38.5 2t-32 4t-20 7q-30 17 -42 45.5t-12 78.5q0 92 48.5 119t186.5 27q107 0 151.5 -26.5t44.5 -103.5h-76v5q0 37 -32.5 48.5t-114.5 11.5t-107 -14.5
t-25 -66.5q0 -50 20 -61q8 -4 17.5 -7t24.5 -4.5t24 -2t32.5 -1t33.5 -0.5q123 -5 154 -18q35 -16 49 -46t14 -84q0 -55 -13.5 -85t-51.5 -53q-32 -20 -159 -20q-126 0 -175.5 28t-49.5 118v14zM157 745h45l90 -128l90 128h45l-98 -170h-74z" />
    <glyph glyph-name="thorn" unicode="&#xfe;" horiz-adv-x="574" 
d="M153 727v-293q35 87 163 87q111 0 155.5 -46t44.5 -157v-122q0 -111 -44.5 -157t-155.5 -46q-62 0 -100.5 18.5t-59.5 61.5v-270h-76v924h73zM156 299v-84q0 -80 37.5 -116.5t119.5 -36.5q80 0 102 30t22 121v88q0 94 -23 122.5t-109 28.5q-76 0 -112.5 -37.5
t-36.5 -115.5z" />
    <glyph glyph-name="threequarters" unicode="&#xbe;" horiz-adv-x="1019" 
d="M45 455h51v-36q0 -40 25 -51t96 -11q49 0 73 4t34 18q8 11 8 65q0 35 -15 48.5t-65 13.5h-70v42h64q48 0 63 15.5t15 57.5q0 46 -16 57q-15 12 -101 12q-61 0 -82 -10t-21 -44v-37h-51v36q0 54 36 75.5t117 21.5q94 0 122 -12q28 -11 38 -33t10 -63q0 -46 -12.5 -66.5
t-51.5 -28.5q42 -7 57 -27t15 -63q0 -50 -12 -77q-14 -29 -48.5 -38t-105.5 -9q-42 0 -61 1t-42 6.5t-37 16.5q-33 27 -33 84v32zM259 -9l424 745h76l-423 -745h-77zM628 95v52l224 260h70v-269h70v-43h-70v-95h-51v95h-243zM677 138h194v224z" />
    <glyph glyph-name="threesuperior" unicode="&#xb3;" horiz-adv-x="446" 
d="M47 436h53v-39q0 -43 26.5 -54.5t100.5 -11.5q51 0 76 4t36 19q9 12 9 70q0 37 -16 52t-68 15h-73v44h66q51 0 66.5 16.5t15.5 61.5q0 50 -16 62t-106 12q-64 0 -86 -10t-22 -47v-40h-54v39q0 58 38 81t123 23q98 0 128 -13q29 -13 39.5 -36.5t10.5 -67.5
q0 -48 -13.5 -70.5t-53.5 -30.5q43 -7 59 -28.5t16 -67.5q0 -54 -13 -83q-14 -31 -50 -40.5t-111 -9.5q-43 0 -63.5 1t-44 6.5t-38.5 17.5q-35 29 -35 90v35z" />
    <glyph glyph-name="trademark" unicode="&#x2122;" horiz-adv-x="833" 
d="M339 710v-28h-84v-231h-40v231h-86v28h210zM458 710l81 -206l76 206h57v-259h-35v228l-86 -228h-24l-91 228v-228h-35v259h57z" />
    <glyph glyph-name="twosuperior" unicode="&#xb2;" horiz-adv-x="446" 
d="M48 291v74q0 61 25 88q23 26 95 43l109 27q51 14 63 30q8 10 8 57q0 28 -3.5 42t-16.5 23q-19 13 -118 13q-66 0 -86.5 -13t-20.5 -60v-26h-55v29q0 68 36.5 91.5t128.5 23.5q99 0 126 -11q39 -16 50.5 -40.5t11.5 -75.5q0 -58 -18.5 -84t-77.5 -41l-134 -34
q-38 -10 -53 -21.5t-15 -40.5v-48h298v-46h-353z" />
    <glyph glyph-name="uacute" unicode="&#xfa;" horiz-adv-x="576" 
d="M498 514v-514h-73v70q-36 -77 -169 -77q-102 0 -142 41.5t-40 142.5v337h76v-321q0 -77 22.5 -104t94.5 -27q80 0 117 36.5t37 116.5v299h77zM272 575h-45l102 170h74z" />
    <glyph glyph-name="ucircumflex" unicode="&#xfb;" horiz-adv-x="576" 
d="M498 514v-514h-73v70q-36 -77 -169 -77q-102 0 -142 41.5t-40 142.5v337h76v-321q0 -77 22.5 -104t94.5 -27q80 0 117 36.5t37 116.5v299h77zM153 575l98 170h74l98 -170h-45l-90 128l-90 -128h-45z" />
    <glyph glyph-name="udieresis" unicode="&#xfc;" horiz-adv-x="576" 
d="M498 514v-514h-73v70q-36 -77 -169 -77q-102 0 -142 41.5t-40 142.5v337h76v-321q0 -77 22.5 -104t94.5 -27q80 0 117 36.5t37 116.5v299h77zM175 612v80h69v-80h-69zM332 612v80h69v-80h-69z" />
    <glyph glyph-name="ugrave" unicode="&#xf9;" horiz-adv-x="576" 
d="M498 514v-514h-73v70q-36 -77 -169 -77q-102 0 -142 41.5t-40 142.5v337h76v-321q0 -77 22.5 -104t94.5 -27q80 0 117 36.5t37 116.5v299h77zM304 575l-131 170h74l102 -170h-45z" />
    <glyph glyph-name="yacute" unicode="&#xfd;" horiz-adv-x="488" 
d="M23 514h76l153 -442l152 442h75l-194 -559q-29 -85 -61 -120t-92 -35q-18 0 -40 3v67q8 -1 23 -1q37 0 56 17t35 61l19 53h-23zM228 575h-45l102 170h74z" />
    <glyph glyph-name="ydieresis" unicode="&#xff;" horiz-adv-x="488" 
d="M23 514h76l153 -442l152 442h75l-194 -559q-29 -85 -61 -120t-92 -35q-18 0 -40 3v67q8 -1 23 -1q37 0 56 17t35 61l19 53h-23zM131 612v80h69v-80h-69zM288 612v80h69v-80h-69z" />
    <glyph glyph-name="zcaron" unicode="&#x17e;" horiz-adv-x="516" 
d="M58 0v83l318 361h-303v70h396v-71l-329 -374h329v-69h-411zM123 745h45l90 -128l90 128h45l-98 -170h-74z" />
  </font>
</defs>
</svg>
